<?xml version="1.0" encoding="utf-8"?>
<!-- Generator: Adobe Illustrator 24.3.0, SVG Export Plug-In . SVG Version: 6.00 Build 0)  -->
<svg version="1.1" id="Layer_2_1_" xmlns="http://www.w3.org/2000/svg" xmlns:xlink="http://www.w3.org/1999/xlink" x="0px" y="0px"
	 viewBox="0 0 56.9 64.5" style="enable-background:new 0 0 56.9 64.5;" xml:space="preserve">
<style type="text/css">
	.st0{fill:#4B4B4D;}
	.st1{fill:#F48131;}
	.st2{fill:#F99C35;}
	.st3{fill:#FFFFFF;}
	.st4{fill:#EBEBEC;}
</style>
<g id="_图层_1">
	<polyline class="st0" points="28.4,60.5 8.1,54.9 3.5,4 53.3,4 48.8,54.8 	"/>
	<polyline class="st0" points="44.9,51.6 48.8,8.1 28.4,8.1 28.4,56.2 	"/>
	<polyline class="st0" points="29.6,14.4 29.6,20.6 43.5,20.3 44,14.4 	"/>
	<polyline class="st0" points="41.2,27 29.6,27 29.6,33.2 37.5,32.7 36.8,41.1 29.6,42.9 29.6,49.4 41.2,46.2 41.3,45.1 42.8,28.7 
		42.9,27 	"/>
	<polyline class="st0" points="34.7,30.2 29.6,30.2 29.6,17.5 35.3,17.5 	"/>
	<polyline class="st0" points="27.1,42.9 19,40.6 18.8,37.1 14.7,36.4 15.6,46.2 27.1,49.3 	"/>
	<polyline class="st0" points="27.1,14.4 21.8,14.4 22.9,46.4 27.1,46.4 	"/>
	<polyline class="st1" points="28.4,60.5 8.1,54.9 3.5,4 53.3,4 48.8,54.8 	"/>
	<polyline class="st2" points="44.9,51.6 48.8,8.1 28.4,8.1 28.4,56.2 	"/>
	<polyline class="st3" points="29.6,14.4 29.6,20.6 43.5,20.3 44,14.4 	"/>
	<polyline class="st3" points="41.2,27 29.6,27 29.6,33.2 37.5,32.7 36.8,41.1 29.6,42.9 29.6,49.4 41.2,46.2 41.3,45.1 42.8,28.7 
		42.9,27 	"/>
	<polyline class="st3" points="34.7,30.2 29.6,30.2 29.6,17.5 35.3,17.5 	"/>
	<polyline class="st4" points="27.1,42.9 19,40.6 18.8,37.1 14.7,36.4 15.6,46.2 27.1,49.3 	"/>
	<polyline class="st4" points="27.1,14.4 21.8,14.4 22.9,46.4 27.1,46.4 	"/>
</g>
</svg>
