<svg xmlns="http://www.w3.org/2000/svg" viewBox="0 0 1101.41 256.28"><defs><style>.cls-1{font-size:252.17px;fill:#231f20;font-family:Teko-Medium, Teko;font-weight:500;}</style></defs><g id="Layer_2" data-name="Layer 2"><polygon points="16.34 54.06 132.63 117.11 111.94 160.82 52.29 151.56 6.13 121.88 0 163.95 40.44 235.44 76.53 240.07 97.36 256.28 122.42 245.25 125.55 225.09 136.99 227.82 149.11 216.93 150.2 128 144.48 117.11 173.89 76.12 179.48 11.98 136.04 8.03 119.83 0 108.12 6.54 66.45 6.67 69.31 27.23 38.95 49.57 16.34 54.06"/><polygon points="30.18 111.07 39.54 108.53 57.69 120.06 74.58 104.99 89.1 107.99 90.37 119.42 56.24 133.68 30.18 111.07"/><polygon points="54.61 106.49 57.01 104.58 57.97 106.31 59.78 105.9 60.28 108.08 56.56 110.03 54.61 106.49"/><text class="cls-1" transform="matrix(0.98, 0, -0.19, 0.98, 166.57, 208.25)">REVENGERX</text></g></svg>